CrispyCond Black-MaxGrade-shadow.ufo
<glyph name="exclam" format="2">
  <advance width="166"/>
  <unicode hex="0021"/>
  <outline>
    <contour>
      <point x="377" y="67" type="line"/>
      <point x="377" y="297" type="line"/>
      <point x="247" y="297" type="line"/>
      <point x="336" y="386" type="line"/>
      <point x="375" y="461" type="line"/>
      <point x="375" y="1602" type="line"/>
      <point x="71" y="1602" type="line"/>
      <point x="-80" y="1451" type="line"/>
      <point x="-119" y="1370" type="line"/>
      <point x="-119" y="235" type="line"/>
      <point x="34" y="235" type="line"/>
      <point x="30" y="229" type="line"/>
      <point x="30" y="-2" type="line"/>
      <point x="336" y="-2" type="line"/>
    </contour>
    <contour>
      <point x="71" y="297" type="line"/>
      <point x="36" y="239" type="line"/>
      <point x="-115" y="239" type="line"/>
      <point x="-115" y="1370" type="line"/>
      <point x="-76" y="1449" type="line"/>
      <point x="73" y="1598" type="line"/>
      <point x="371" y="1598" type="line"/>
      <point x="371" y="461" type="line"/>
      <point x="332" y="388" type="line"/>
      <point x="241" y="297" type="line"/>
    </contour>
    <contour>
      <point x="41" y="239" type="line"/>
      <point x="73" y="293" type="line"/>
      <point x="237" y="293" type="line"/>
      <point x="183" y="239" type="line"/>
    </contour>
    <contour>
      <point x="185" y="235" type="line"/>
      <point x="243" y="293" type="line"/>
      <point x="373" y="293" type="line"/>
      <point x="373" y="69" type="line"/>
      <point x="334" y="2" type="line"/>
      <point x="34" y="2" type="line"/>
      <point x="34" y="227" type="line"/>
      <point x="39" y="235" type="line"/>
    </contour>
    <component base="period"/>
    <component base="period"/>
    <component base="period"/>
    <component base="period"/>
  </outline>
</glyph>
<glyph name="comma" format="2">
  <advance width="95"/>
  <unicode hex="002C"/>
  <outline>
    <contour>
      <point x="144" y="-197" type="line"/>
      <point x="241" y="0" type="line"/>
      <point x="241" y="250" type="line"/>
      <point x="-62" y="250" type="line"/>
      <point x="-213" y="99" type="line"/>
      <point x="-252" y="42" type="line"/>
      <point x="-252" y="-152" type="line"/>
      <point x="-61" y="-152" type="line"/>
      <point x="-61" y="-348" type="line"/>
      <point x="-7" y="-348" type="line"/>
    </contour>
    <contour>
      <point x="-57" y="-148" type="line"/>
      <point x="-248" y="-148" type="line"/>
      <point x="-248" y="40" type="line"/>
      <point x="-209" y="97" type="line"/>
      <point x="-60" y="246" type="line"/>
      <point x="237" y="246" type="line"/>
      <point x="237" y="0" type="line"/>
      <point x="140" y="-195" type="line"/>
      <point x="-9" y="-344" type="line"/>
      <point x="-57" y="-344" type="line"/>
    </contour>
  </outline>
</glyph>
<glyph name="period" format="2">
  <advance width="230"/>
  <unicode hex="002E"/>
  <outline>
    <contour>
      <point x="-80" y="146" type="line"/>
      <point x="-120" y="79" type="line"/>
      <point x="-120" y="-152" type="line"/>
      <point x="186" y="-152" type="line"/>
      <point x="337" y="-1" type="line"/>
      <point x="377" y="67" type="line"/>
      <point x="377" y="297" type="line"/>
      <point x="71" y="297" type="line"/>
    </contour>
    <contour>
      <point x="-116" y="-148" type="line"/>
      <point x="-116" y="77" type="line"/>
      <point x="-76" y="144" type="line"/>
      <point x="73" y="293" type="line"/>
      <point x="373" y="293" type="line"/>
      <point x="373" y="69" type="line"/>
      <point x="333" y="1" type="line"/>
      <point x="184" y="-148" type="line"/>
    </contour>
  </outline>
</glyph>
<glyph name="zero" format="2">
  <advance width="653"/>
  <unicode hex="0030"/>
  <outline>
    <contour>
      <point x="789" y="1602" type="line"/>
      <point x="36" y="1602" type="line"/>
      <point x="-115" y="1451" type="line"/>
      <point x="-115" y="-152" type="line"/>
      <point x="638" y="-152" type="line"/>
      <point x="789" y="-1" type="line"/>
    </contour>
    <contour>
      <point x="-111" y="-148" type="line"/>
      <point x="-111" y="1449" type="line"/>
      <point x="38" y="1598" type="line"/>
      <point x="785" y="1598" type="line"/>
      <point x="785" y="1" type="line"/>
      <point x="636" y="-148" type="line"/>
    </contour>
  </outline>
</glyph>
<glyph name="two" format="2">
  <advance width="611"/>
  <unicode hex="0032"/>
  <outline>
    <contour>
      <point x="765" y="429" type="line"/>
      <point x="423" y="429" type="line"/>
      <point x="370" y="376" type="line"/>
      <point x="370" y="508" type="line"/>
      <point x="608" y="508" type="line"/>
      <point x="759" y="659" type="line"/>
      <point x="759" y="1602" type="line"/>
      <point x="24" y="1602" type="line"/>
      <point x="-127" y="1451" type="line"/>
      <point x="-127" y="933" type="line"/>
      <point x="215" y="933" type="line"/>
      <point x="265" y="983" type="line"/>
      <point x="265" y="921" type="line"/>
      <point x="17" y="921" type="line"/>
      <point x="-134" y="770" type="line"/>
      <point x="-134" y="-152" type="line"/>
      <point x="614" y="-152" type="line"/>
      <point x="765" y="-1" type="line"/>
    </contour>
    <contour>
      <point x="269" y="917" type="line"/>
      <point x="269" y="993" type="line"/>
      <point x="213" y="937" type="line"/>
      <point x="-123" y="937" type="line"/>
      <point x="-123" y="1449" type="line"/>
      <point x="26" y="1598" type="line"/>
      <point x="755" y="1598" type="line"/>
      <point x="755" y="661" type="line"/>
      <point x="606" y="512" type="line"/>
      <point x="366" y="512" type="line"/>
      <point x="366" y="366" type="line"/>
      <point x="425" y="425" type="line"/>
      <point x="761" y="425" type="line"/>
      <point x="761" y="1" type="line"/>
      <point x="612" y="-148" type="line"/>
      <point x="-130" y="-148" type="line"/>
      <point x="-130" y="768" type="line"/>
      <point x="19" y="917" type="line"/>
    </contour>
  </outline>
</glyph>
<glyph name="four" format="2">
  <advance width="649"/>
  <unicode hex="0034"/>
  <outline>
    <contour>
      <point x="608" y="-152" type="line"/>
      <point x="759" y="-1" type="line"/>
      <point x="759" y="616" type="line"/>
      <point x="803" y="660" type="line"/>
      <point x="803" y="923" type="line"/>
      <point x="759" y="923" type="line"/>
      <point x="759" y="1602" type="line"/>
      <point x="417" y="1602" type="line"/>
      <point x="360" y="1545" type="line"/>
      <point x="360" y="1602" type="line"/>
      <point x="17" y="1602" type="line"/>
      <point x="-134" y="1451" type="line"/>
      <point x="-134" y="509" type="line"/>
      <point x="266" y="509" type="line"/>
      <point x="266" y="-152" type="line"/>
    </contour>
    <contour>
      <point x="270" y="513" type="line"/>
      <point x="-130" y="513" type="line"/>
      <point x="-130" y="1449" type="line"/>
      <point x="19" y="1598" type="line"/>
      <point x="356" y="1598" type="line"/>
      <point x="356" y="1535" type="line"/>
      <point x="419" y="1598" type="line"/>
      <point x="755" y="1598" type="line"/>
      <point x="755" y="919" type="line"/>
      <point x="799" y="919" type="line"/>
      <point x="799" y="662" type="line"/>
      <point x="755" y="618" type="line"/>
      <point x="755" y="1" type="line"/>
      <point x="606" y="-148" type="line"/>
      <point x="270" y="-148" type="line"/>
    </contour>
  </outline>
</glyph>
<glyph name="five" format="2">
  <advance width="605"/>
  <unicode hex="0035"/>
  <outline>
    <contour>
      <point x="758" y="-1" type="line"/>
      <point x="758" y="950" type="line"/>
      <point x="360" y="950" type="line"/>
      <point x="360" y="1189" type="line"/>
      <point x="607" y="1189" type="line"/>
      <point x="758" y="1340" type="line"/>
      <point x="758" y="1602" type="line"/>
      <point x="17" y="1602" type="line"/>
      <point x="-134" y="1451" type="line"/>
      <point x="-134" y="536" type="line"/>
      <point x="265" y="536" type="line"/>
      <point x="265" y="513" type="line"/>
      <point x="19" y="513" type="line"/>
      <point x="-132" y="362" type="line"/>
      <point x="-132" y="-152" type="line"/>
      <point x="607" y="-152" type="line"/>
    </contour>
    <contour>
      <point x="269" y="509" type="line"/>
      <point x="269" y="540" type="line"/>
      <point x="-130" y="540" type="line"/>
      <point x="-130" y="1449" type="line"/>
      <point x="19" y="1598" type="line"/>
      <point x="754" y="1598" type="line"/>
      <point x="754" y="1342" type="line"/>
      <point x="605" y="1193" type="line"/>
      <point x="356" y="1193" type="line"/>
      <point x="356" y="946" type="line"/>
      <point x="754" y="946" type="line"/>
      <point x="754" y="1" type="line"/>
      <point x="605" y="-148" type="line"/>
      <point x="-128" y="-148" type="line"/>
      <point x="-128" y="360" type="line"/>
      <point x="21" y="509" type="line"/>
    </contour>
  </outline>
</glyph>
<glyph name="B" format="2">
  <advance width="646"/>
  <unicode hex="0042"/>
  <outline>
    <contour>
      <point x="555" y="-152" type="line"/>
      <point x="706" y="-1" type="line"/>
      <point x="793" y="363" type="line"/>
      <point x="793" y="929" type="line"/>
      <point x="735" y="929" type="line"/>
      <point x="735" y="1602" type="line"/>
      <point x="36" y="1602" type="line"/>
      <point x="-115" y="1451" type="line"/>
      <point x="-115" y="-152" type="line"/>
    </contour>
    <contour>
      <point x="731" y="925" type="line"/>
      <point x="789" y="925" type="line"/>
      <point x="789" y="363" type="line"/>
      <point x="702" y="1" type="line"/>
      <point x="553" y="-148" type="line"/>
      <point x="-111" y="-148" type="line"/>
      <point x="-111" y="1449" type="line"/>
      <point x="38" y="1598" type="line"/>
      <point x="731" y="1598" type="line"/>
    </contour>
  </outline>
</glyph>
<glyph name="H" format="2">
  <advance width="651"/>
  <unicode hex="0048"/>
  <outline>
    <contour>
      <point x="635" y="-152" type="line"/>
      <point x="786" y="-1" type="line"/>
      <point x="786" y="1602" type="line"/>
      <point x="444" y="1602" type="line"/>
      <point x="378" y="1536" type="line"/>
      <point x="378" y="1602" type="line"/>
      <point x="36" y="1602" type="line"/>
      <point x="-115" y="1451" type="line"/>
      <point x="-115" y="-152" type="line"/>
      <point x="227" y="-152" type="line"/>
      <point x="293" y="-86" type="line"/>
      <point x="293" y="-152" type="line"/>
    </contour>
    <contour>
      <point x="374" y="1526" type="line"/>
      <point x="446" y="1598" type="line"/>
      <point x="782" y="1598" type="line"/>
      <point x="782" y="1" type="line"/>
      <point x="633" y="-148" type="line"/>
      <point x="297" y="-148" type="line"/>
      <point x="297" y="-76" type="line"/>
      <point x="225" y="-148" type="line"/>
      <point x="-111" y="-148" type="line"/>
      <point x="-111" y="1449" type="line"/>
      <point x="38" y="1598" type="line"/>
      <point x="374" y="1598" type="line"/>
    </contour>
  </outline>
</glyph>
<glyph name="J" format="2">
  <advance width="613"/>
  <unicode hex="004A"/>
  <outline>
    <contour>
      <point x="749" y="-1" type="line"/>
      <point x="749" y="1602" type="line"/>
      <point x="407" y="1602" type="line"/>
      <point x="256" y="1451" type="line"/>
      <point x="256" y="733" type="line"/>
      <point x="17" y="733" type="line"/>
      <point x="-134" y="582" type="line"/>
      <point x="-134" y="-152" type="line"/>
      <point x="598" y="-152" type="line"/>
    </contour>
    <contour>
      <point x="260" y="729" type="line"/>
      <point x="260" y="1449" type="line"/>
      <point x="409" y="1598" type="line"/>
      <point x="745" y="1598" type="line"/>
      <point x="745" y="1" type="line"/>
      <point x="596" y="-148" type="line"/>
      <point x="-130" y="-148" type="line"/>
      <point x="-130" y="580" type="line"/>
      <point x="19" y="729" type="line"/>
    </contour>
  </outline>
</glyph>
<glyph name="K" format="2">
  <advance width="639"/>
  <unicode hex="004B"/>
  <outline>
    <contour>
      <point x="633" y="-152" type="line"/>
      <point x="784" y="-1" type="line"/>
      <point x="784" y="868" type="line"/>
      <point x="695" y="868" type="line"/>
      <point x="784" y="1602" type="line"/>
      <point x="446" y="1602" type="line"/>
      <point x="378" y="1534" type="line"/>
      <point x="378" y="1602" type="line"/>
      <point x="36" y="1602" type="line"/>
      <point x="-115" y="1451" type="line"/>
      <point x="-115" y="-152" type="line"/>
      <point x="227" y="-152" type="line"/>
      <point x="290" y="-89" type="line"/>
      <point x="290" y="-152" type="line"/>
    </contour>
    <contour>
      <point x="374" y="1524" type="line"/>
      <point x="448" y="1598" type="line"/>
      <point x="780" y="1598" type="line"/>
      <point x="691" y="864" type="line"/>
      <point x="780" y="864" type="line"/>
      <point x="780" y="1" type="line"/>
      <point x="631" y="-148" type="line"/>
      <point x="294" y="-148" type="line"/>
      <point x="294" y="-79" type="line"/>
      <point x="225" y="-148" type="line"/>
      <point x="-111" y="-148" type="line"/>
      <point x="-111" y="1449" type="line"/>
      <point x="38" y="1598" type="line"/>
      <point x="374" y="1598" type="line"/>
    </contour>
  </outline>
</glyph>
<glyph name="M" format="2">
  <advance width="1096"/>
  <unicode hex="004D"/>
  <outline>
    <contour>
      <point x="1081" y="-152" type="line"/>
      <point x="1235" y="2" type="line"/>
      <point x="1082" y="2" type="line"/>
      <point x="1082" y="1452" type="line"/>
      <point x="663" y="1452" type="line"/>
      <point x="666" y="1605" type="line"/>
      <point x="512" y="1451" type="line"/>
      <point x="485" y="216" type="line"/>
      <point x="482" y="213" type="line"/>
      <point x="455" y="1452" type="line"/>
      <point x="39" y="1452" type="line"/>
      <point x="39" y="1605" type="line"/>
      <point x="-115" y="1451" type="line"/>
      <point x="-115" y="-152" type="line"/>
      <point x="188" y="-152" type="line"/>
      <point x="308" y="-32" type="line"/>
      <point x="724" y="-32" type="line"/>
      <point x="778" y="22" type="line"/>
      <point x="778" y="-152" type="line"/>
    </contour>
    <contour>
      <point x="659" y="1448" type="line"/>
      <point x="1078" y="1448" type="line"/>
      <point x="1078" y="-2" type="line"/>
      <point x="1225" y="-2" type="line"/>
      <point x="1079" y="-148" type="line"/>
      <point x="782" y="-148" type="line"/>
      <point x="782" y="32" type="line"/>
      <point x="722" y="-28" type="line"/>
      <point x="306" y="-28" type="line"/>
      <point x="186" y="-148" type="line"/>
      <point x="-111" y="-148" type="line"/>
      <point x="-111" y="1449" type="line"/>
      <point x="35" y="1595" type="line"/>
      <point x="35" y="1448" type="line"/>
      <point x="451" y="1448" type="line"/>
      <point x="478" y="209" type="line"/>
      <point x="475" y="206" type="line"/>
      <point x="478" y="206" type="line"/>
      <point x="478" y="203" type="line"/>
      <point x="481" y="206" type="line"/>
      <point x="489" y="206" type="line"/>
      <point x="489" y="215" type="line"/>
      <point x="516" y="1449" type="line"/>
      <point x="662" y="1595" type="line"/>
    </contour>
    <contour>
      <point x="725" y="118" type="line"/>
      <point x="782" y="118" type="line"/>
      <point x="782" y="1193" type="line"/>
      <point x="752" y="1193" type="line"/>
    </contour>
    <contour>
      <point x="185" y="-2" type="line"/>
      <point x="244" y="-2" type="line"/>
      <point x="215" y="1193" type="line"/>
      <point x="185" y="1193" type="line"/>
    </contour>
    <contour>
      <point x="729" y="122" type="line"/>
      <point x="756" y="1189" type="line"/>
      <point x="778" y="1189" type="line"/>
      <point x="778" y="122" type="line"/>
    </contour>
    <contour>
      <point x="189" y="2" type="line"/>
      <point x="189" y="1189" type="line"/>
      <point x="211" y="1189" type="line"/>
      <point x="240" y="2" type="line"/>
    </contour>
    <contour>
      <point x="485" y="210" type="line"/>
      <point x="485" y="210" type="line"/>
      <point x="485" y="210" type="line"/>
    </contour>
  </outline>
</glyph>
<glyph name="Q" format="2">
  <advance width="638"/>
  <unicode hex="0051"/>
  <outline>
    <contour>
      <point x="374" y="-351" type="line"/>
      <point x="525" y="-200" type="line"/>
      <point x="525" y="-152" type="line"/>
      <point x="623" y="-152" type="line"/>
      <point x="774" y="-1" type="line"/>
      <point x="774" y="1602" type="line"/>
      <point x="112" y="1602" type="line"/>
      <point x="-39" y="1451" type="line"/>
      <point x="-127" y="1083" type="line"/>
      <point x="-127" y="-152" type="line"/>
      <point x="133" y="-152" type="line"/>
      <point x="133" y="-351" type="line"/>
    </contour>
    <contour>
      <point x="137" y="-148" type="line"/>
      <point x="-123" y="-148" type="line"/>
      <point x="-123" y="1083" type="line"/>
      <point x="-35" y="1449" type="line"/>
      <point x="114" y="1598" type="line"/>
      <point x="770" y="1598" type="line"/>
      <point x="770" y="1" type="line"/>
      <point x="621" y="-148" type="line"/>
      <point x="521" y="-148" type="line"/>
      <point x="521" y="-198" type="line"/>
      <point x="372" y="-347" type="line"/>
      <point x="137" y="-347" type="line"/>
    </contour>
  </outline>
</glyph>
<glyph name="R" format="2">
  <advance width="646"/>
  <unicode hex="0052"/>
  <outline>
    <contour>
      <point x="641" y="-152" type="line"/>
      <point x="792" y="-1" type="line"/>
      <point x="792" y="377" type="line"/>
      <point x="725" y="521" type="line"/>
      <point x="785" y="580" type="line"/>
      <point x="785" y="1602" type="line"/>
      <point x="36" y="1602" type="line"/>
      <point x="-115" y="1451" type="line"/>
      <point x="-115" y="-152" type="line"/>
      <point x="227" y="-152" type="line"/>
      <point x="298" y="-81" type="line"/>
      <point x="298" y="-152" type="line"/>
    </contour>
    <contour>
      <point x="721" y="521" type="line"/>
      <point x="788" y="377" type="line"/>
      <point x="788" y="1" type="line"/>
      <point x="639" y="-148" type="line"/>
      <point x="302" y="-148" type="line"/>
      <point x="302" y="-71" type="line"/>
      <point x="225" y="-148" type="line"/>
      <point x="-111" y="-148" type="line"/>
      <point x="-111" y="1449" type="line"/>
      <point x="38" y="1598" type="line"/>
      <point x="781" y="1598" type="line"/>
      <point x="781" y="582" type="line"/>
    </contour>
  </outline>
</glyph>
<glyph name="T" format="2">
  <advance width="506"/>
  <unicode hex="0054"/>
  <outline>
    <contour>
      <point x="359" y="-152" type="line"/>
      <point x="510" y="-1" type="line"/>
      <point x="510" y="1190" type="line"/>
      <point x="660" y="1340" type="line"/>
      <point x="660" y="1602" type="line"/>
      <point x="17" y="1602" type="line"/>
      <point x="-134" y="1451" type="line"/>
      <point x="-134" y="1189" type="line"/>
      <point x="16" y="1189" type="line"/>
      <point x="16" y="-152" type="line"/>
    </contour>
    <contour>
      <point x="20" y="1193" type="line"/>
      <point x="-130" y="1193" type="line"/>
      <point x="-130" y="1449" type="line"/>
      <point x="19" y="1598" type="line"/>
      <point x="656" y="1598" type="line"/>
      <point x="656" y="1342" type="line"/>
      <point x="506" y="1192" type="line"/>
      <point x="506" y="1" type="line"/>
      <point x="357" y="-148" type="line"/>
      <point x="20" y="-148" type="line"/>
    </contour>
  </outline>
</glyph>
<glyph name="V" format="2">
  <advance width="637"/>
  <unicode hex="0056"/>
  <outline>
    <contour>
      <point x="545" y="-152" type="line"/>
      <point x="699" y="2" type="line"/>
      <point x="583" y="2" type="line"/>
      <point x="634" y="215" type="line"/>
      <point x="634" y="1452" type="line"/>
      <point x="444" y="1452" type="line"/>
      <point x="444" y="1605" type="line"/>
      <point x="290" y="1451" type="line"/>
      <point x="290" y="227" type="line"/>
      <point x="272" y="158" type="line"/>
      <point x="228" y="114" type="line"/>
      <point x="228" y="1452" type="line"/>
      <point x="39" y="1452" type="line"/>
      <point x="39" y="1605" type="line"/>
      <point x="-115" y="1451" type="line"/>
      <point x="-115" y="-152" type="line"/>
    </contour>
    <contour>
      <point x="294" y="227" type="line"/>
      <point x="294" y="1449" type="line"/>
      <point x="440" y="1595" type="line"/>
      <point x="440" y="1448" type="line"/>
      <point x="630" y="1448" type="line"/>
      <point x="630" y="215" type="line"/>
      <point x="577" y="-2" type="line"/>
      <point x="689" y="-2" type="line"/>
      <point x="543" y="-148" type="line"/>
      <point x="-111" y="-148" type="line"/>
      <point x="-111" y="1449" type="line"/>
      <point x="35" y="1595" type="line"/>
      <point x="35" y="1448" type="line"/>
      <point x="224" y="1448" type="line"/>
      <point x="224" y="110" type="line"/>
      <point x="221" y="107" type="line"/>
      <point x="224" y="107" type="line"/>
      <point x="224" y="104" type="line"/>
      <point x="227" y="107" type="line"/>
      <point x="264" y="107" type="line"/>
      <point x="276" y="157" type="line"/>
    </contour>
    <contour>
      <point x="231" y="111" type="line"/>
      <point x="270" y="150" type="line"/>
      <point x="260" y="111" type="line"/>
    </contour>
  </outline>
</glyph>
<glyph name="Z" format="2">
  <advance width="613"/>
  <unicode hex="005A"/>
  <outline>
    <contour>
      <point x="757" y="502" type="line"/>
      <point x="415" y="502" type="line"/>
      <point x="374" y="461" type="line"/>
      <point x="766" y="1267" type="line"/>
      <point x="766" y="1602" type="line"/>
      <point x="33" y="1602" type="line"/>
      <point x="-118" y="1451" type="line"/>
      <point x="-118" y="985" type="line"/>
      <point x="189" y="985" type="line"/>
      <point x="227" y="1023" type="line"/>
      <point x="-134" y="285" type="line"/>
      <point x="-134" y="-152" type="line"/>
      <point x="606" y="-152" type="line"/>
      <point x="757" y="-1" type="line"/>
    </contour>
    <contour>
      <point x="240" y="1041" type="line"/>
      <point x="240" y="1041" type="line"/>
      <point x="187" y="989" type="line"/>
      <point x="-114" y="989" type="line"/>
      <point x="-114" y="1449" type="line"/>
      <point x="35" y="1598" type="line"/>
      <point x="762" y="1598" type="line"/>
      <point x="762" y="1267" type="line"/>
      <point x="361" y="443" type="line"/>
      <point x="361" y="443" type="line"/>
      <point x="417" y="498" type="line"/>
      <point x="753" y="498" type="line"/>
      <point x="753" y="1" type="line"/>
      <point x="604" y="-148" type="line"/>
      <point x="-130" y="-148" type="line"/>
      <point x="-130" y="285" type="line"/>
    </contour>
  </outline>
</glyph>
<glyph name="F.wide" format="2">
  <advance width="565"/>
  <outline>
    <contour>
      <point x="227" y="-152" type="line"/>
      <point x="378" y="-1" type="line"/>
      <point x="378" y="373" type="line"/>
      <point x="520" y="373" type="line"/>
      <point x="671" y="524" type="line"/>
      <point x="671" y="786" type="line"/>
      <point x="378" y="786" type="line"/>
      <point x="378" y="1189" type="line"/>
      <point x="567" y="1189" type="line"/>
      <point x="718" y="1340" type="line"/>
      <point x="718" y="1602" type="line"/>
      <point x="36" y="1602" type="line"/>
      <point x="-115" y="1451" type="line"/>
      <point x="-115" y="-152" type="line"/>
    </contour>
    <contour>
      <point x="374" y="1193" type="line"/>
      <point x="374" y="782" type="line"/>
      <point x="667" y="782" type="line"/>
      <point x="667" y="526" type="line"/>
      <point x="518" y="377" type="line"/>
      <point x="374" y="377" type="line"/>
      <point x="374" y="1" type="line"/>
      <point x="225" y="-148" type="line"/>
      <point x="-111" y="-148" type="line"/>
      <point x="-111" y="1449" type="line"/>
      <point x="38" y="1598" type="line"/>
      <point x="714" y="1598" type="line"/>
      <point x="714" y="1342" type="line"/>
      <point x="565" y="1193" type="line"/>
    </contour>
  </outline>
</glyph>
<glyph name="I.narrow" format="2">
  <advance width="243"/>
  <outline>
    <contour>
      <point x="-115" y="1451" type="line"/>
      <point x="-115" y="-152" type="line"/>
      <point x="227" y="-152" type="line"/>
      <point x="378" y="-1" type="line"/>
      <point x="378" y="1602" type="line"/>
      <point x="36" y="1602" type="line"/>
    </contour>
    <contour>
      <point x="-111" y="-148" type="line"/>
      <point x="-111" y="1449" type="line"/>
      <point x="38" y="1598" type="line"/>
      <point x="374" y="1598" type="line"/>
      <point x="374" y="1" type="line"/>
      <point x="225" y="-148" type="line"/>
    </contour>
  </outline>
</glyph>
<glyph name="P.wide" format="2">
  <advance width="657"/>
  <outline>
    <contour>
      <point x="225" y="-152" type="line"/>
      <point x="376" y="-1" type="line"/>
      <point x="376" y="437" type="line"/>
      <point x="661" y="437" type="line"/>
      <point x="812" y="588" type="line"/>
      <point x="812" y="1602" type="line"/>
      <point x="34" y="1602" type="line"/>
      <point x="-117" y="1451" type="line"/>
      <point x="-117" y="-152" type="line"/>
    </contour>
    <contour>
      <point x="372" y="441" type="line"/>
      <point x="372" y="1" type="line"/>
      <point x="223" y="-148" type="line"/>
      <point x="-113" y="-148" type="line"/>
      <point x="-113" y="1449" type="line"/>
      <point x="36" y="1598" type="line"/>
      <point x="808" y="1598" type="line"/>
      <point x="808" y="590" type="line"/>
      <point x="659" y="441" type="line"/>
    </contour>
  </outline>
</glyph>
<glyph name="S.wide" format="2">
  <advance width="610"/>
  <outline>
    <contour>
      <point x="677" y="-1" type="line"/>
      <point x="763" y="355" type="line"/>
      <point x="763" y="937" type="line"/>
      <point x="357" y="937" type="line"/>
      <point x="357" y="1203" type="line"/>
      <point x="612" y="1203" type="line"/>
      <point x="763" y="1354" type="line"/>
      <point x="763" y="1602" type="line"/>
      <point x="110" y="1602" type="line"/>
      <point x="-41" y="1451" type="line"/>
      <point x="-132" y="1071" type="line"/>
      <point x="-132" y="510" type="line"/>
      <point x="270" y="510" type="line"/>
      <point x="270" y="252" type="line"/>
      <point x="19" y="252" type="line"/>
      <point x="-132" y="101" type="line"/>
      <point x="-132" y="-152" type="line"/>
      <point x="526" y="-152" type="line"/>
    </contour>
    <contour>
      <point x="274" y="248" type="line"/>
      <point x="274" y="514" type="line"/>
      <point x="-128" y="514" type="line"/>
      <point x="-128" y="1071" type="line"/>
      <point x="-37" y="1449" type="line"/>
      <point x="112" y="1598" type="line"/>
      <point x="759" y="1598" type="line"/>
      <point x="759" y="1356" type="line"/>
      <point x="610" y="1207" type="line"/>
      <point x="353" y="1207" type="line"/>
      <point x="353" y="933" type="line"/>
      <point x="759" y="933" type="line"/>
      <point x="759" y="355" type="line"/>
      <point x="673" y="1" type="line"/>
      <point x="524" y="-148" type="line"/>
      <point x="-128" y="-148" type="line"/>
      <point x="-128" y="99" type="line"/>
      <point x="21" y="248" type="line"/>
    </contour>
  </outline>
</glyph>
<glyph name="U.alt" format="2">
  <advance width="672"/>
  <outline>
    <contour>
      <point x="634" y="-152" type="line"/>
      <point x="785" y="-1" type="line"/>
      <point x="785" y="1602" type="line"/>
      <point x="442" y="1602" type="line"/>
      <point x="376" y="1536" type="line"/>
      <point x="376" y="1602" type="line"/>
      <point x="34" y="1602" type="line"/>
      <point x="-117" y="1451" type="line"/>
      <point x="-117" y="-152" type="line"/>
    </contour>
    <contour>
      <point x="372" y="1526" type="line"/>
      <point x="444" y="1598" type="line"/>
      <point x="781" y="1598" type="line"/>
      <point x="781" y="1" type="line"/>
      <point x="632" y="-148" type="line"/>
      <point x="-113" y="-148" type="line"/>
      <point x="-113" y="1449" type="line"/>
      <point x="36" y="1598" type="line"/>
      <point x="372" y="1598" type="line"/>
    </contour>
  </outline>
</glyph>
<glyph name="Y.wide" format="2">
  <advance width="654"/>
  <outline>
    <contour>
      <point x="791" y="-1" type="line"/>
      <point x="791" y="1602" type="line"/>
      <point x="448" y="1602" type="line"/>
      <point x="359" y="1513" type="line"/>
      <point x="359" y="1602" type="line"/>
      <point x="16" y="1602" type="line"/>
      <point x="-135" y="1451" type="line"/>
      <point x="-135" y="518" type="line"/>
      <point x="297" y="518" type="line"/>
      <point x="297" y="261" type="line"/>
      <point x="32" y="261" type="line"/>
      <point x="-119" y="110" type="line"/>
      <point x="-119" y="-152" type="line"/>
      <point x="640" y="-152" type="line"/>
    </contour>
    <contour>
      <point x="355" y="1503" type="line"/>
      <point x="450" y="1598" type="line"/>
      <point x="787" y="1598" type="line"/>
      <point x="787" y="1" type="line"/>
      <point x="638" y="-148" type="line"/>
      <point x="-115" y="-148" type="line"/>
      <point x="-115" y="108" type="line"/>
      <point x="34" y="257" type="line"/>
      <point x="301" y="257" type="line"/>
      <point x="301" y="522" type="line"/>
      <point x="-131" y="522" type="line"/>
      <point x="-131" y="1449" type="line"/>
      <point x="18" y="1598" type="line"/>
      <point x="355" y="1598" type="line"/>
    </contour>
  </outline>
</glyph>
<glyph name="Z.wide" format="2">
  <advance width="654"/>
  <outline>
    <contour>
      <point x="800" y="-1" type="line"/>
      <point x="800" y="261" type="line"/>
      <point x="360" y="261" type="line"/>
      <point x="360" y="432" type="line"/>
      <point x="805" y="1328" type="line"/>
      <point x="805" y="1602" type="line"/>
      <point x="21" y="1602" type="line"/>
      <point x="-130" y="1451" type="line"/>
      <point x="-130" y="1189" type="line"/>
      <point x="310" y="1189" type="line"/>
      <point x="310" y="1168" type="line"/>
      <point x="-134" y="285" type="line"/>
      <point x="-134" y="-152" type="line"/>
      <point x="649" y="-152" type="line"/>
    </contour>
    <contour>
      <point x="356" y="432" type="line"/>
      <point x="356" y="257" type="line"/>
      <point x="796" y="257" type="line"/>
      <point x="796" y="1" type="line"/>
      <point x="647" y="-148" type="line"/>
      <point x="-130" y="-148" type="line"/>
      <point x="-130" y="285" type="line"/>
      <point x="314" y="1168" type="line"/>
      <point x="314" y="1193" type="line"/>
      <point x="-126" y="1193" type="line"/>
      <point x="-126" y="1449" type="line"/>
      <point x="23" y="1598" type="line"/>
      <point x="801" y="1598" type="line"/>
      <point x="801" y="1328" type="line"/>
    </contour>
  </outline>
</glyph>
<glyph name="one.narrow" format="2">
  <advance width="335"/>
  <outline>
    <contour>
      <point x="471" y="1602" type="line"/>
      <point x="17" y="1602" type="line"/>
      <point x="-134" y="1451" type="line"/>
      <point x="-134" y="1189" type="line"/>
      <point x="-23" y="1189" type="line"/>
      <point x="-23" y="-152" type="line"/>
      <point x="320" y="-152" type="line"/>
      <point x="471" y="-1" type="line"/>
    </contour>
    <contour>
      <point x="-19" y="1193" type="line"/>
      <point x="-130" y="1193" type="line"/>
      <point x="-130" y="1449" type="line"/>
      <point x="19" y="1598" type="line"/>
      <point x="467" y="1598" type="line"/>
      <point x="467" y="1" type="line"/>
      <point x="318" y="-148" type="line"/>
      <point x="-19" y="-148" type="line"/>
    </contour>
  </outline>
</glyph>
<glyph name="three.wide" format="2">
  <advance width="686"/>
  <outline>
    <contour>
      <point x="822" y="-1" type="line"/>
      <point x="822" y="917" type="line"/>
      <point x="774" y="917" type="line"/>
      <point x="774" y="1602" type="line"/>
      <point x="19" y="1602" type="line"/>
      <point x="-132" y="1451" type="line"/>
      <point x="-132" y="1189" type="line"/>
      <point x="281" y="1189" type="line"/>
      <point x="281" y="919" type="line"/>
      <point x="91" y="919" type="line"/>
      <point x="-60" y="768" type="line"/>
      <point x="-60" y="506" type="line"/>
      <point x="328" y="506" type="line"/>
      <point x="328" y="261" type="line"/>
      <point x="40" y="261" type="line"/>
      <point x="-111" y="110" type="line"/>
      <point x="-111" y="-152" type="line"/>
      <point x="671" y="-152" type="line"/>
    </contour>
    <contour>
      <point x="770" y="913" type="line"/>
      <point x="818" y="913" type="line"/>
      <point x="818" y="1" type="line"/>
      <point x="669" y="-148" type="line"/>
      <point x="-107" y="-148" type="line"/>
      <point x="-107" y="108" type="line"/>
      <point x="42" y="257" type="line"/>
      <point x="332" y="257" type="line"/>
      <point x="332" y="510" type="line"/>
      <point x="-56" y="510" type="line"/>
      <point x="-56" y="766" type="line"/>
      <point x="93" y="915" type="line"/>
      <point x="285" y="915" type="line"/>
      <point x="285" y="1193" type="line"/>
      <point x="-128" y="1193" type="line"/>
      <point x="-128" y="1449" type="line"/>
      <point x="21" y="1598" type="line"/>
      <point x="770" y="1598" type="line"/>
    </contour>
  </outline>
</glyph>
